<svg width="40" height="40" viewBox="0 0 40 40" fill="none" xmlns="http://www.w3.org/2000/svg">
<rect width="40" height="40" rx="4" fill="#0070FA"/>
<path d="M19.5977 10.8672L13.7734 28H9.8125L4 10.8672H7.66797L10.8906 21.0625C10.9453 21.2344 11.0352 21.5586 11.1602 22.0352C11.2852 22.5039 11.4102 23.0039 11.5352 23.5352C11.668 24.0586 11.7578 24.4922 11.8047 24.8359C11.8516 24.4922 11.9336 24.0586 12.0508 23.5352C12.1758 23.0117 12.2969 22.5156 12.4141 22.0469C12.5391 21.5703 12.6289 21.2422 12.6836 21.0625L15.9297 10.8672H19.5977Z" fill="black"/>
<path d="M35.9805 19.2695C35.9805 21.1992 35.6094 22.8125 34.8672 24.1094C34.1328 25.3984 33.0664 26.3711 31.668 27.0273C30.2695 27.6758 28.5859 28 26.6172 28H21.7656V10.8672H27.1445C28.9414 10.8672 30.5 11.1875 31.8203 11.8281C33.1406 12.4609 34.1641 13.4023 34.8906 14.6523C35.6172 15.8945 35.9805 17.4336 35.9805 19.2695ZM32.207 19.3633C32.207 18.0977 32.0195 17.0586 31.6445 16.2461C31.2773 15.4258 30.7305 14.8203 30.0039 14.4297C29.2852 14.0391 28.3945 13.8438 27.332 13.8438H25.3984V25H26.957C28.7305 25 30.0469 24.5273 30.9062 23.582C31.7734 22.6367 32.207 21.2305 32.207 19.3633Z" fill="white"/>
</svg>
